# xmcd CD database file
# Copyright (C) 1996 Ti Kan
#
# Track frame offsets:
#  150
#  12750
#  24848
#  37988
#  50888
#  63425
#  76390
#  88895
#  102205
#  114555
#  129390
#  142768
#  154840
#  167213
#
# Disc length: 2381 seconds
#
# Revision: 2
# Processed by: cddbd v1.4b41PL1 Copyright (c) Steve Scherf et al.
# Submitted via: CDWizzard Release:4.12
#
DISCID=ad094b0e
DTITLE=Big Bill Broonzy - The Young Bill Broonzy
DYEAR=1900
DGENRE=
TTITLE0=Long Tall Mama
TTITLE1=Mississippi River Blues
TTITLE2=Saturday Night Rub
TTITLE3=How You Want It Done?
TTITLE4=Stove Pipe Stomp
TTITLE5=Hokum Stomp
TTITLE6=I Can't Be Satisfied
TTITLE7=Brownskin Shuffle
TTITLE8=Eagle Ridin' Papa
TTITLE9=Starvation Blues
TTITLE10=Hip Shakin' Strut
TTITLE11=Good Liquor Gonna Carry Me Down
TTITLE12=Skoodle Do Do
TTITLE13=Banker's Blues
EXTD=
EXTT0=
EXTT1=
EXTT2=
EXTT3=
EXTT4=
EXTT5=
EXTT6=
EXTT7=
EXTT8=
EXTT9=
EXTT10=
EXTT11=
EXTT12=
EXTT13=
PLAYORDER=
